#!OML:ASF H:\Terrain\Patient Classification 1\Terrain2\Thursday\justin.ASF
:FULLY-SPECIFIED
:DEGREES
2189
root 9.07676 17.3455 -20.5722 176.61 -60.2566 -177.056
lowerback 3.16186 0.578884 1.22391
upperback 2.61832 0.697469 2.40705
thorax 0.898575 0.307447 1.76559
lowerneck -13.6406 4.76576 -5.8248
upperneck 40.8688 6.65301 -0.292232
head 16.9747 0.874119 1.80244
rclavicle 5.77966e-014 -4.29375e-014
rhumerus -32.5294 -15.4621 -76.9642
rradius 24.8956
rwrist -8.2391
rhand -19.8476 10.4526
rfingers 7.12502
rthumb 6.48696 -19.4281
lclavicle 5.77966e-014 -4.29375e-014
lhumerus -32.8716 7.8937 79.0916
lradius 32.658
lwrist 4.22998
lhand -17.4936 19.7002
lfingers 7.12502
lthumb 8.75901 -310.502
rfemur -10.6616 14.9174 16.7311
rtibia 32.6436
rfoot -18.5185 9.10953
rtoes 8.66927
lfemur -6.89147 -5.52199 -17.0205
ltibia 25.6074
lfoot -3.27935 -36.3376
ltoes 26.4064
2190
root 9.0893 17.3328 -20.6094 176.87 -61.1103 -177.439
lowerback 3.34678 0.592126 1.03711
upperback 2.61759 0.718777 2.32799
thorax 0.792387 0.317334 1.78677
lowerneck -13.6905 4.74468 -5.75708
upperneck 40.8888 6.6698 -0.38703
head 17.0086 0.884423 1.75572
rclavicle -3.35946e-014 -1.59028e-015
rhumerus -32.2788 -14.5298 -77.4132
rradius 24.9706
rwrist -8.74197
rhand -19.8076 10.6367
rfingers 7.12502
rthumb 6.52558 -19.2428
lclavicle -3.35946e-014 -1.59028e-015
lhumerus -32.8496 8.30393 78.8204
lradius 32.2754
lwrist 4.95426
lhand -17.4456 18.8891
lfingers 7.12502
lthumb 8.80535 -311.315
rfemur -10.4014 14.5912 16.5757
rtibia 32.2705
rfoot -18.5988 8.71384
rtoes 8.21295
lfemur -7.00598 -5.90353 -17.1692
ltibia 25.7213
lfoot -3.00128 -36.5731
ltoes 27.4344
2191
root 9.10871 17.3248 -20.6533 176.803 -61.9087 -177.457
lowerback 3.56452 0.621473 0.888427
upperback 2.61117 0.759059 2.36122
thorax 0.660744 0.335157 1.90104
lowerneck -13.5768 4.7316 -5.704
upperneck 40.8061 6.66008 -0.418599
head 16.9386 0.901171 1.72948
rclavicle 1.14798e-014 6.36111e-014
rhumerus -32.0646 -13.2759 -77.8823
rradius 25.2016
rwrist -9.47573
rhand -19.6493 10.4258
rfingers 7.12502
rthumb 6.67838 -19.4488
lclavicle 1.14798e-014 6.36111e-014
lhumerus -32.9217 8.56899 78.5882
lradius 31.9034
lwrist 5.4704
lhand -19.1844 20.1279
lfingers 7.12502
lthumb 7.1272 -310.012
rfemur -10.0894 14.2216 16.7153
rtibia 32.0093
rfoot -18.6032 7.9655
rtoes 7.50631
lfemur -7.1639 -6.25544 -17.0634
ltibia 25.9551
lfoot -3.28592 -36.8207
ltoes 26.5203
2192
root 9.12073 17.3284 -20.6943 176.442 -62.576 -176.979
lowerback 3.56242 0.669936 1.09081
upperback 2.58575 0.828104 2.43633
thorax 0.636013 0.371179 1.86248
lowerneck -13.4458 4.73428 -5.80605
upperneck 40.712 6.65262 -0.274215
head 16.8384 0.922031 1.80837
rclavicle 5.31749e-015 3.97569e-015
rhumerus -31.8265 -12.3091 -78.1977
rradius 25.344
rwrist -10.1136
rhand -19.7745 10.5724
rfingers 7.12502
rthumb 6.55747 -19.3061
lclavicle 5.31749e-015 3.97569e-015
lhumerus -32.8836 9.04026 78.2981
lradius 31.4183
lwrist 5.46256
lhand -20.2081 21.6444
lfingers 7.12502
lthumb 6.13889 -308.465
rfemur -9.87163 13.6217 17.0382
rtibia 31.807
rfoot -18.4536 7.86556
rtoes 8.33289
lfemur -7.48651 -6.52859 -16.7155
ltibia 26.2973
lfoot -3.58623 -37.0096
ltoes 25.5189
2193
root 9.13096 17.3253 -20.7288 175.695 -63.2005 -176.045
lowerback 3.55357 0.734191 1.64617
upperback 2.57603 0.924204 2.51171
thorax 0.636983 0.423918 1.62573
lowerneck -13.5748 4.66967 -5.98675
upperneck 40.821 6.61774 -0.203389
head 16.9215 0.887887 1.87295
rclavicle -1.51573e-014 -1.66979e-014
rhumerus -31.4457 -11.5785 -78.4957
rradius 25.2946
rwrist -10.9197
rhand -20.4392 11.1246
rfingers 7.12502
rthumb 5.91582 -18.7728
lclavicle -1.51573e-014 -1.66979e-014
lhumerus -32.737 9.46894 78.0692
lradius 30.9646
lwrist 5.44071
lhand -19.0451 21.264
lfingers 7.12502
lthumb 7.26163 -308.881
rfemur -9.69189 12.6419 17.6209
rtibia 31.6446
rfoot -18.5826 7.85408
rtoes 7.19475
lfemur -7.76977 -7.18495 -16.1597
ltibia 26.5968
lfoot -3.66504 -36.8207
ltoes 26.1456
2194
root 9.1394 17.318 -20.7666 175.195 -63.8339 -175.541
lowerback 3.59757 0.834596 2.00718
upperback 2.62844 1.06508 2.48041
thorax 0.671751 0.498334 1.38716
lowerneck -13.6745 4.562 -5.95996
upperneck 40.8805 6.51147 -0.283842
head 16.9927 0.839723 1.82088
rclavicle -4.09496e-014 -2.62396e-014
rhumerus -31.1217 -11.176 -78.8657
rradius 25.3572
rwrist -12.0499
rhand -21.5179 11.6402
rfingers 7.12502
rthumb 4.87424 -18.2837
lclavicle -4.09496e-014 -2.62396e-014
lhumerus -32.782 9.7099 77.7419
lradius 30.6737
lwrist 5.45887
lhand -18.6195 20.5483
lfingers 7.12502
lthumb 7.67241 -309.611
rfemur -9.30241 11.6047 18.0331
rtibia 31.4631
rfoot -18.8775 7.84256
rtoes 6.49337
lfemur -7.84094 -7.89979 -15.8698
ltibia 26.8212
lfoot -4.52634 -36.6321
ltoes 25.2019
2195
root 9.14683 17.3172 -20.8132 174.982 -64.3863 -175.422
lowerback 3.61361 0.98001 2.04613
upperback 2.71634 1.25567 2.47177
thorax 0.752471 0.593892 1.35173
lowerneck -13.6429 4.45132 -5.93454
upperneck 40.8287 6.37935 -0.338933
head 16.967 0.795801 1.77113
rclavicle 5.58585e-014 -4.21423e-014
rhumerus -30.8252 -11.1676 -78.9449
rradius 25.3969
rwrist -12.077
rhand -21.8523 11.3814
rfingers 7.12502
rthumb 4.55142 -18.5497
lclavicle 5.58585e-014 -4.21423e-014
lhumerus -32.8985 9.82591 77.4488
lradius 30.4312
lwrist 5.53425
lhand -19.6235 20.7409
lfingers 7.12502
lthumb 6.70328 -309.385
rfemur -8.82897 10.8849 18.2663
rtibia 31.2404
rfoot -18.8713 7.87061
rtoes 9.06036
lfemur -7.79817 -8.29964 -15.7618
ltibia 26.9659
lfoot -5.07987 -36.6856
ltoes 24.2334
2196
root 9.15548 17.3242 -20.8576 174.219 -64.8729 -174.707
lowerback 3.7187 1.15078 2.32431
upperback 2.78353 1.48498 2.59847
thorax 0.765511 0.708455 1.31857
lowerneck -13.5448 4.33922 -6.04726
upperneck 40.6967 6.27167 -0.356242
head 16.8711 0.753951 1.76423
rclavicle 4.68138e-014 1.59028e-015
rhumerus -30.4819 -11.3988 -78.6047
rradius 25.2588
rwrist -10.5579
rhand -20.9102 10.5271
rfingers 7.12502
rthumb 5.46103 -19.3825
lclavicle 4.68138e-014 1.59028e-015
lhumerus -32.9777 9.93446 77.2889
lradius 30.2227
lwrist 5.56469
lhand -20.4866 21.4683
lfingers 7.12502
lthumb 5.87007 -308.633
rfemur -8.44222 10.206 18.8055
rtibia 31.0748
rfoot -18.876 7.42476
rtoes 9.58764
lfemur -7.70224 -8.64105 -15.3848
ltibia 26.8999
lfoot -4.97331 -36.7292
ltoes 24.4127
2197
root 9.16905 17.3291 -20.9005 173.671 -65.4043 -174.172
lowerback 3.92908 1.29998 2.57513
upperback 2.75088 1.69957 2.61333
thorax 0.620719 0.817414 1.18188
lowerneck -13.4532 4.24139 -6.02742
upperneck 40.6782 6.12005 -0.339148
head 16.8437 0.707986 1.74264
rclavicle 5.725e-014 -5.56597e-015
rhumerus -30.2914 -11.3981 -78.504
rradius 25.259
rwrist -9.85918
rhand -20.397 10.4704
rfingers 7.12502
rthumb 5.9565 -19.4258
lclavicle 5.725e-014 -5.56597e-015
lhumerus -33.1432 10.1781 76.9173
lradius 29.9421
lwrist 5.41378
lhand -20.7028 21.574
lfingers 7.12502
lthumb 5.66127 -308.522
rfemur -8.18664 9.36396 19.2536
rtibia 30.9195
rfoot -19.1275 6.62806
rtoes 6.53947
lfemur -7.67073 -8.98526 -15.0927
ltibia 26.7231
lfoot -4.83784 -36.8091
ltoes 23.6869
2198
root 9.18951 17.3297 -20.9471 173.883 -65.937 -174.382
lowerback 4.04925 1.41123 2.39941
upperback 2.69922 1.85477 2.52963
thorax 0.496879 0.894764 1.185
lowerneck -13.5283 4.19226 -5.85432
upperneck 40.9633 6.01016 -0.377139
head 17.0349 0.664434 1.68182
rclavicle 4.72611e-014 -3.97569e-015
rhumerus -30.0951 -11.121 -78.7008
rradius 25.3344
rwrist -10.0565
rhand -20.6816 10.7092
rfingers 7.12502
rthumb 5.68175 -19.1946
lclavicle 4.72611e-014 -3.97569e-015
lhumerus -33.3406 10.5514 76.4506
lradius 29.6105
lwrist 5.17093
lhand -20.4146 21.094
lfingers 7.12502
lthumb 5.93952 -309.009
rfemur -8.05923 8.75125 19.3213
rtibia 30.7173
rfoot -19.2488 6.2509
rtoes 5.14511
lfemur -7.71017 -9.33282 -15.0597
ltibia 26.6207
lfoot -4.60624 -36.9197
ltoes 22.9624
2199
root 9.20717 17.3383 -20.995 173.784 -66.3548 -174.276
lowerback 4.0847 1.5357 2.31549
upperback 2.72524 2.01873 2.53055
thorax 0.500241 0.975921 1.22662
lowerneck -13.5517 4.20277 -5.66616
upperneck 41.0939 6.04225 -0.536136
head 17.1313 0.678782 1.58594
rclavicle -1.78906e-015 4.69132e-014
rhumerus -29.7377 -11.1498 -78.7454
rradius 25.2848
rwrist -9.67151
rhand -20.4942 10.5006
rfingers 7.12502
rthumb 5.8627 -19.3982
lclavicle -1.78906e-015 4.69132e-014
lhumerus -33.5218 11.3416 76.042
lradius 29.3705
lwrist 4.558
lhand -20.1713 20.7167
lfingers 7.12502
lthumb 6.17441 -309.393
rfemur -7.89729 8.34882 19.5304
rtibia 30.5043
rfoot -19.1379 6.19285
rtoes 5.1952
lfemur -7.76263 -9.74553 -14.8763
ltibia 26.6212
lfoot -4.53633 -36.8947
ltoes 23.7594
2200
root 9.2232 17.3463 -21.0466 173.029 -66.6556 -173.496
lowerback 4.1693 1.68626 2.50605
upperback 2.79072 2.22132 2.60526
thorax 0.524408 1.07709 1.18867
lowerneck -13.5239 4.22099 -5.55978
upperneck 40.9736 6.11378 -0.651316
head 17.0663 0.727596 1.52978
rclavicle -5.52124e-014 -2.3059e-014
rhumerus -29.2636 -11.5038 -78.6973
rradius 25.082
rwrist -8.89306
rhand -20.2152 10.5218
rfingers 7.12502
rthumb 6.13205 -19.3695
lclavicle -5.52124e-014 -2.3059e-014
lhumerus -33.6616 12.1318 75.7011
lradius 29.2062
lwrist 3.89294
lhand -20.2967 20.6211
lfingers 7.12502
lthumb 6.05333 -309.485
rfemur -7.6773 8.1524 20.0858
rtibia 30.2742
rfoot -18.9487 5.91013
rtoes 5.13781
lfemur -7.83789 -10.1314 -14.3995
ltibia 26.7346
lfoot -4.93393 -36.8225
ltoes 23.6289
2201
root 9.24218 17.3431 -21.0994 171.799 -66.9235 -172.152
lowerback 4.21994 1.85944 2.99212
upperback 2.84934 2.46039 2.69264
thorax 0.574112 1.19958 0.998848
lowerneck -13.6455 4.17491 -5.58145
upperneck 41.0108 6.05424 -0.557801
head 17.1136 0.719745 1.57226
rclavicle 1.88845e-015 -3.18055e-014
rhumerus -28.7336 -11.7493 -78.7222
rradius 24.7895
rwrist -8.3815
rhand -20.4157 10.5601
rfingers 7.12502
rthumb 5.93852 -19.3367
lclavicle 1.88845e-015 -3.18055e-014
lhumerus -33.8204 11.9052 75.4865
lradius 29.2646
lwrist 4.25517
lhand -20.3302 21.2006
lfingers 7.12502
lthumb 6.02104 -308.905
rfemur -7.49711 8.22434 20.9021
rtibia 29.9784
rfoot -18.7509 5.42904
rtoes 4.89725
lfemur -8.05284 -10.391 -13.6495
ltibia 27.0186
lfoot -5.11209 -36.9335
ltoes 22.7545
2202
root 9.26011 17.3414 -21.1443 170.876 -67.2021 -171.081
lowerback 4.20603 2.03517 3.50217
upperback 2.8625 2.7061 2.70033
thorax 0.621539 1.32805 0.715751
lowerneck -13.7492 4.12983 -5.48952
upperneck 41.1459 5.95364 -0.481445
head 17.2184 0.701218 1.57949
rclavicle 6.79347e-014 3.18055e-014
rhumerus -28.2944 -11.6789 -78.8195
rradius 24.6204
rwrist -8.21323
rhand -20.5822 10.4354
rfingers 7.12502
rthumb 5.77773 -19.4659
lclavicle 6.79347e-014 3.18055e-014
lhumerus -34.0124 11.4298 75.2734
lradius 29.2992
lwrist 4.95696
lhand -20.0273 22.1192
lfingers 7.12502
lthumb 6.3135 -307.995
rfemur -7.39231 8.22976 21.5299
rtibia 29.6531
rfoot -18.5316 5.05881
rtoes 3.94699
lfemur -8.44356 -10.6566 -13.042
ltibia 27.4339
lfoot -4.78064 -37.0874
ltoes 24.039
